<svg width="208" height="43" viewBox="0 0 208 43" fill="none" xmlns="http://www.w3.org/2000/svg">
<path d="M31.5719 19.051C30.403 20.2705 29.8188 21.9667 29.9783 23.6781L29.9509 23.6497C30.1149 25.6637 29.4143 27.6502 28.036 29.0794C26.6578 30.5085 24.7421 31.235 22.7999 31.065L22.8273 31.0934C20.4757 30.8665 18.2393 32.1929 17.2358 34.4098C16.2322 36.6267 16.6769 39.2582 18.3477 40.9891C20.0185 42.7201 22.5565 43.1789 24.6935 42.1362C26.8305 41.0935 28.1076 38.7733 27.8866 36.3351L27.9156 36.3635C27.7516 34.3495 28.4522 32.363 29.8305 30.9338C31.2087 29.5046 33.1244 28.7781 35.0666 28.9481L35.0377 28.9197C37.6222 29.1607 40.027 27.5266 40.8456 24.9732C41.6642 22.4198 40.6815 19.6179 38.4723 18.2064C36.2631 16.7949 33.4077 17.1446 31.5764 19.051H31.5719Z" fill="#5454D4"/>
<path d="M20.3334 27.3683L20.3045 27.3399C21.9559 27.5125 23.5949 26.9069 24.769 25.6903C25.9431 24.4737 26.5284 22.7746 26.3632 21.062L26.3922 21.0904C26.2282 19.0764 26.9288 17.0899 28.307 15.6607C29.6853 14.2315 31.601 13.5051 33.5432 13.6751L33.5143 13.6466C35.8661 13.8756 38.1038 12.5507 39.1089 10.3341C40.1139 8.11743 39.6705 5.48525 38.0003 3.75324C36.33 2.02123 33.7916 1.56142 31.654 2.60366C29.5163 3.6459 28.2386 5.96631 28.4595 8.40501L28.4321 8.375C28.5965 10.3891 27.8961 12.376 26.5178 13.8053C25.1394 15.2346 23.2233 15.9609 21.281 15.7903L21.3084 15.8204C19.6569 15.6478 18.018 16.2534 16.8439 17.47C15.6697 18.6866 15.0845 20.3856 15.2497 22.0983L15.2222 22.0699C15.3856 24.0837 14.6849 26.0699 13.3068 27.499C11.9287 28.928 10.0133 29.6546 8.07118 29.4852L8.09861 29.5136C5.74682 29.2846 3.50911 30.6096 2.50402 32.8262C1.49893 35.0428 1.94234 37.675 3.61262 39.407C5.2829 41.139 7.82127 41.5988 9.9589 40.5566C12.0965 39.5144 13.3743 37.194 13.1534 34.7553L13.1823 34.7837C13.0184 32.7697 13.719 30.7832 15.0972 29.354C16.4755 27.9248 18.3912 27.1983 20.3334 27.3683Z" fill="#FF7143"/>
<path d="M10.1232 24.1979C11.2923 22.9786 11.876 21.2821 11.7152 19.5708L11.7442 19.5992C11.5801 17.5846 12.2811 15.5975 13.66 14.1682C15.039 12.7389 16.9556 12.0129 18.8983 12.1839L18.8693 12.1554C21.2203 12.3838 23.4569 11.059 24.4614 8.84306C25.4659 6.62713 25.0225 3.99599 23.3528 2.26462C21.6832 0.533248 19.1458 0.0734719 17.0089 1.11508C14.8719 2.15668 13.5943 4.47597 13.8145 6.91383L13.7871 6.88539C13.9511 8.89939 13.2505 10.8859 11.8722 12.3151C10.494 13.7443 8.57827 14.4707 6.63605 14.3007L6.66348 14.3292C4.07911 14.0888 1.67475 15.7234 0.856633 18.2768C0.0385193 20.8302 1.02155 23.6317 3.23078 25.0429C5.44001 26.4541 8.29513 26.1042 10.1263 24.1979H10.1232Z" fill="#5454D4"/>
<path d="M57.3151 8.44141H61.8397V31.2735H57.3151V8.44141Z" fill="#19191B"/>
<path fill-rule="evenodd" clip-rule="evenodd" d="M69.3144 15.7737C66.3285 17.0671 64.3892 20.0997 64.4021 23.4553C64.3865 25.6556 65.2246 27.77 66.7281 29.3227C68.2315 30.8755 70.2739 31.7362 72.3957 31.7111C75.6316 31.711 78.5484 29.6879 79.7837 26.5865C81.0191 23.485 80.3293 19.9172 78.0365 17.5492C75.7438 15.1812 72.3004 14.4803 69.3144 15.7737ZM72.3313 19.9567C74.2352 19.9203 75.8118 21.4815 75.8645 23.4553C75.9159 24.4338 75.5703 25.39 74.9114 26.0924C74.2525 26.7949 73.3403 27.1796 72.3956 27.1535C70.4914 27.1536 68.9428 25.5626 68.9251 23.5881C68.9075 21.6136 70.4275 19.9932 72.3313 19.9567Z" fill="#19191B"/>
<path fill-rule="evenodd" clip-rule="evenodd" d="M98.4223 30.4853V15.6356L94.018 15.6325V17.228C92.9436 15.8648 91.3096 15.1105 89.6137 15.1949C85.4769 15.3302 82.1909 18.8468 82.1909 23.1386C82.1909 27.4305 85.4769 30.9471 89.6137 31.0824C91.3096 31.1668 92.9436 30.4125 94.018 29.0493V30.479C94.0937 31.4222 93.752 32.3501 93.0892 33.0008C92.4263 33.6516 91.5142 33.9548 90.6101 33.8249C89.1799 33.9762 87.8093 33.191 87.1716 31.8549L83.3112 34.1693C84.8216 36.721 87.58 38.1841 90.4592 37.9607C94.4705 37.9607 98.4223 35.7395 98.4223 30.4853ZM91.8695 19.5268C93.2306 20.1633 94.0817 21.594 94.0195 23.1409C94.0477 24.1398 93.6672 25.1045 92.9722 25.7966C92.2771 26.4888 91.3322 26.8439 90.3709 26.7744C88.8778 26.7763 87.5336 25.8365 86.9753 24.4005C86.4171 22.9645 86.7569 21.3208 87.8339 20.2484C88.9108 19.1759 90.5084 18.8903 91.8695 19.5268Z" fill="#19191B"/>
<path fill-rule="evenodd" clip-rule="evenodd" d="M105.897 15.7737C102.911 17.0671 100.972 20.0997 100.985 23.4553C100.969 25.6556 101.807 27.77 103.311 29.3227C104.814 30.8755 106.856 31.7362 108.978 31.7111C112.214 31.711 115.131 29.6879 116.366 26.5865C117.602 23.485 116.912 19.9172 114.619 17.5492C112.326 15.1812 108.883 14.4803 105.897 15.7737ZM108.914 19.9567C110.818 19.9203 112.394 21.4815 112.447 23.4553C112.498 24.4338 112.153 25.39 111.494 26.0924C110.835 26.7949 109.923 27.1796 108.978 27.1535C107.074 27.1536 105.525 25.5626 105.508 23.5881C105.49 21.6136 107.01 19.9932 108.914 19.9567Z" fill="#19191B"/>
<path fill-rule="evenodd" clip-rule="evenodd" d="M120.758 8.84376C119.743 9.27949 119.082 10.306 119.082 11.4446C119.097 12.9929 120.303 14.2443 121.797 14.2597C122.895 14.2597 123.884 13.5738 124.305 12.5219C124.725 11.47 124.493 10.2591 123.716 9.45401C122.94 8.64889 121.772 8.40804 120.758 8.84376ZM124.065 15.6356H119.539L119.533 31.2751H124.065V15.6356Z" fill="#19191B"/>
<path fill-rule="evenodd" clip-rule="evenodd" d="M141.653 29.1376C143.006 27.588 143.707 25.5429 143.602 23.4553C143.708 21.3673 143.007 19.3216 141.654 17.7715C140.3 16.2214 138.407 15.2951 136.393 15.1979C134.695 15.1019 133.046 15.802 131.9 17.1047V15.6355H127.375V37.5293H131.9V29.8027C133.045 31.1064 134.695 31.8071 136.393 31.7111C138.406 31.6134 140.3 30.6872 141.653 29.1376ZM135.429 19.8271C137.399 19.7929 139.028 21.4124 139.077 23.4552C139.145 24.4705 138.792 25.4676 138.107 26.1962C137.422 26.9248 136.47 27.3156 135.489 27.2703C133.519 27.2706 131.916 25.6232 131.9 23.5798C131.883 21.5364 133.458 19.8613 135.429 19.8271Z" fill="#19191B"/>
<path d="M157.564 26.5817C157.564 30.1788 154.549 31.7111 151.292 31.7111C148.599 31.9641 146.03 30.4895 144.807 27.9893L148.726 25.6749C149.053 26.8389 150.12 27.6079 151.286 27.5201C152.371 27.5201 152.914 27.1757 152.914 26.5517C152.914 24.8298 145.494 25.7381 145.494 20.3275C145.494 16.9168 148.269 15.198 151.406 15.198C153.808 15.1192 156.061 16.4011 157.287 18.5439L153.426 20.7019C153.08 19.8644 152.285 19.3226 151.406 19.3259C150.622 19.3259 150.139 19.6419 150.139 20.2011C150.145 21.9846 157.564 20.7951 157.564 26.5817Z" fill="#19191B"/>
<path d="M174.092 15.6356V31.2751H169.567V29.8044C168.509 31.1209 166.905 31.8306 165.256 31.7127C162.209 31.7127 159.619 29.4616 159.619 25.2358V15.6356H164.144V24.5486C164.067 25.3025 164.314 26.0532 164.82 26.6009C165.325 27.1487 166.037 27.4381 166.767 27.3921C168.426 27.3921 169.572 26.3921 169.572 24.171V15.6404L174.092 15.6356Z" fill="#19191B"/>
<path d="M200.036 21.6718V31.2735H195.512V22.0778C195.512 20.5138 194.788 19.5138 193.341 19.5138C191.832 19.5138 190.987 20.6086 190.987 22.4537V31.2735H186.464V22.0778C186.464 20.5138 185.74 19.5138 184.291 19.5138C182.783 19.5138 181.939 20.6086 181.939 22.4537V31.2735H177.414V15.634H181.939V17.0715C182.892 15.7756 184.414 15.0696 185.981 15.1964C187.556 15.1165 189.055 15.8998 189.931 17.2595C190.95 15.838 192.602 15.0589 194.305 15.1964C197.768 15.1979 200.036 17.7619 200.036 21.6718Z" fill="#19191B"/>
<path d="M203.863 15.5392C205.717 15.5392 207.221 13.9804 207.221 12.0575C207.221 10.1345 205.717 8.57568 203.863 8.57568C202.009 8.57568 200.505 10.1345 200.505 12.0575C200.505 13.9804 202.009 15.5392 203.863 15.5392Z" fill="#19191B"/>
</svg>
